<?xml version="1.0" encoding="utf-8"?>
<!-- Generator: Adobe Illustrator 22.0.1, SVG Export Plug-In . SVG Version: 6.00 Build 0)  -->
<svg version="1.1" id="Calque_1" xmlns="http://www.w3.org/2000/svg" xmlns:xlink="http://www.w3.org/1999/xlink" x="0px" y="0px"
   viewBox="0 0 512 512" style="enable-background:new 0 0 512 512;" xml:space="preserve">
<style type="text/css">
  .st0{opacity:0.4;fill:#88BD24;}
  .st1{fill:#FACCC0;}
  .st2{fill:#020203;}
  .st3{fill:#ACABB2;}
  .st4{fill:#6AB42D;}
  .st5{fill:#D1D2D4;}
  .st6{fill:#5C442F;}
  .st7{fill:#F9BFA1;}
  .st8{fill:#5F4532;}
  .st9{fill:#765838;}
  .st10{fill:#F5A37F;}
  .st11{fill:#D8D7DA;}
  .st12{fill:#42AB34;}
</style>
<circle class="st0" cx="256" cy="256" r="217.3"/>
<path class="st1" d="M321.3,336.5c-0.7-20.6-14.3-38.5-34-44.6l-13.5-4.2l2,20.2c0.7,7.1,3.4,13.9,7.8,19.6c0.9,1.3,1.9,2.5,3.1,3.6
  c8.2,10.2,11.9,23.4,10,36.4c-0.9,8.8-4.6,17-10.6,23.5c-1.2,1.1-2.3,2.4-3.2,3.7h38.6v-56.5C321.3,337.6,321.3,337,321.3,336.5
  L321.3,336.5z"/>
<path class="st2" d="M286.6,331.1c-1.1-1.1-2.1-2.3-3.1-3.6c-4.4-5.7-7.1-12.5-7.8-19.6l-2-20.2l-20.3-6.4v11.5
  c0,16.1-13,29.1-29.1,29.1c-16.1,0-29.1-13-29.1-29.1v-11.5l-20.3,6.4l-2,20.2c-0.9,8.7-4.7,16.9-10.8,23.2
  c-6.9,8.3-10.7,18.8-10.5,29.6c-0.2,11.1,3.7,21.9,11.1,30.2c1.2,1.1,2.3,2.4,3.2,3.7h116.9c0.9-1.4,2-2.6,3.2-3.7
  c6-6.5,9.7-14.7,10.6-23.5C298.5,354.5,294.9,341.3,286.6,331.1L286.6,331.1z"/>
<path class="st3" d="M408.1,345.8c2.9,13.1-5.5,26-18.6,28.9c-1.7,0.4-3.4,0.6-5.2,0.6c-5.5,0-10.9-1.9-15.1-5.4
  c-3.4-2.8-7.7-4.3-12.1-4.3h-6.7v-29.1h6.7c4.5,0,8.8-1.6,12.3-4.4c5.5-4.4,12.6-6.2,19.5-4.9C398.5,329,406,336.3,408.1,345.8z"/>
<path class="st4" d="M331,336.5h19.4v29.1H331V336.5z"/>
<path class="st5" d="M342.1,179.9c5.3,1,8.8,6,7.9,11.3c-0.9,5.3-5.9,8.8-11.2,7.9c0,0-0.1,0-0.1,0c-5.3-0.9-17.4-12.9-17.4-12.9
  S336.9,179,342.1,179.9z"/>
<path class="st5" d="M343.7,138.3c3.4,4.1,2.9,10.2-1.2,13.7c0,0,0,0,0,0c-4.1,3.4-21.1,5-21.1,5s4.5-16.4,8.6-19.9
  C334.1,133.7,340.2,134.2,343.7,138.3z"/>
<path class="st4" d="M321.3,336.5h-9.7v29.1h9.7h9.7v-29.1H321.3z"/>
<path class="st6" d="M301.9,176.4v67.9c-12.5,0-24.6-4-34.7-11.4c3.7-6.9,5.6-14.7,5.6-22.6v-11c4.6,2.7,10.6,1.1,13.3-3.5
  c2.7-4.6,1.1-10.6-3.5-13.3c-3-1.7-6.7-1.7-9.7,0v-20.7c0-6.7-1.4-13.3-4.1-19.5c2-0.1,4-0.9,5.5-2.3c1.8-1.5,2.9-3.5,3.3-5.8
  C292.6,143,302,159,301.9,176.4z"/>
<path class="st3" d="M304.9,336.5c-4.5,0-8.8-1.6-12.3-4.4c-2.7-2.2-5.8-3.7-9.1-4.6c-13-3.2-26.2,4.7-29.4,17.7
  c0,0.2-0.1,0.4-0.1,0.6c-2.9,13.1,5.5,26,18.6,28.9c1.7,0.4,3.4,0.6,5.2,0.6c5.5,0,10.9-1.9,15.1-5.4c1.2-0.9,2.4-1.8,3.8-2.4
  c2.6-1.3,5.5-1.9,8.3-1.9h6.7v-29.1H304.9z"/>
<path class="st7" d="M277.7,181.2c5.4,0,9.7,4.3,9.7,9.7c0,5.4-4.3,9.7-9.7,9.7c-1.7,0-3.4-0.4-4.9-1.3v-16.8
  C274.3,181.7,276,181.2,277.7,181.2z"/>
<path class="st8" d="M277.7,132.7c0,0.5,0,1.1-0.1,1.6c-0.4,2.3-1.5,4.3-3.3,5.8c-1.5,1.3-3.5,2.1-5.5,2.3h0
  c-2.2-5.2-5.4-10-9.4-14.1v0c2.4-4.8,8.3-6.7,13.1-4.2C275.7,125.7,277.7,129.1,277.7,132.7z"/>
<path class="st1" d="M272.8,199.3v11c0,7.9-1.9,15.6-5.6,22.6c-2.3,4.3-5.2,8.3-8.6,11.7c-18.9,18.9-49.7,18.9-68.6,0
  c-9.1-9.1-14.2-21.4-14.2-34.3v-29.1h97V199.3z"/>
<path class="st4" d="M175.8,161.8h97v19.4h-97V161.8z"/>
<path class="st9" d="M272.8,161.8h-97c0-26.8,21.7-48.5,48.4-48.5c13.2,0,25.9,5.4,35,14.9h0v0c4,4.1,7.1,8.8,9.4,14.1h0
  C271.5,148.5,272.8,155.1,272.8,161.8L272.8,161.8z"/>
<path class="st1" d="M253.4,281.3v11.5c0,16.1-13,29.1-29.1,29.1c-16.1,0-29.1-13-29.1-29.1v-11.5l9.7-3.1v-23.5
  c12.4,5.4,26.4,5.4,38.8,0v23.5L253.4,281.3z"/>
<path class="st7" d="M175.8,182.6v16.8c-4.6,2.7-10.6,1.1-13.3-3.5c-2.7-4.6-1.1-10.6,3.5-13.3C169.1,180.8,172.8,180.8,175.8,182.6
  z"/>
<path class="st1" d="M174.9,287.7l-2,20.2c-0.9,8.7-4.7,16.9-10.8,23.2c-6.9,8.3-10.7,18.8-10.5,29.6c-0.2,11.1,3.7,21.9,11.1,30.2
  c1.2,1.1,2.3,2.4,3.2,3.7h-38.6v-56.5c0-21.2,13.8-40,34-46.3L174.9,287.7z"/>
<path class="st5" d="M146.1,118.5c4.4,3.1,10.3,19.1,10.3,19.1s-17.1-0.1-21.4-3.2c-4.6-2.8-6-8.8-3.2-13.3c2.8-4.6,8.8-6,13.3-3.2
  C145.4,118,145.8,118.3,146.1,118.5z"/>
<path class="st5" d="M151.6,161.8c0,0-5.9,16-10.3,19.1c-4.6,2.8-10.5,1.3-13.3-3.2c-2.5-4.2-1.6-9.6,2.2-12.6
  C134.5,161.9,151.6,161.8,151.6,161.8z"/>
<path class="st7" d="M243.7,254.8v9.7c-12.4,5.4-26.4,5.4-38.8,0v-9.7C217.3,260.2,231.4,260.2,243.7,254.8z"/>
<path class="st7" d="M175.8,181.2h97v9.7h-97V181.2z"/>
<path class="st10" d="M195.2,190.9h9.7v9.7h-9.7V190.9z"/>
<path class="st10" d="M243.7,190.9h9.7v9.7h-9.7V190.9z"/>
<path class="st10" d="M224.3,239.4c-10.7,0-19.4-8.7-19.4-19.4h9.7c0,5.4,4.3,9.7,9.7,9.7c5.4,0,9.7-4.3,9.7-9.7h9.7
  C243.7,230.8,235,239.4,224.3,239.4z"/>
<path class="st11" d="M384.4,365.6v-9.7c2.7,0,4.9-2.2,4.9-4.9h9.7C398.9,359,392.4,365.6,384.4,365.6z"/>
<g>
  <path class="st12" d="M306.8,336.5h9.7v29.1h-9.7V336.5z"/>
  <path class="st12" d="M326.2,336.5h9.7v29.1h-9.7V336.5z"/>
  <path class="st12" d="M345.6,336.5h9.7v29.1h-9.7V336.5z"/>
</g>
</svg>
