<?xml version="1.0" encoding="utf-8"?>
<!-- Generator: Adobe Illustrator 22.0.1, SVG Export Plug-In . SVG Version: 6.00 Build 0)  -->
<svg version="1.1" id="Calque_1" xmlns="http://www.w3.org/2000/svg" xmlns:xlink="http://www.w3.org/1999/xlink" x="0px" y="0px"
   viewBox="0 0 512 512" style="enable-background:new 0 0 512 512;" xml:space="preserve">
<style type="text/css">
  .st0{opacity:0.4;fill:#88BD24;}
  .st1{fill:#F5ED82;}
  .st2{fill:#F6E93E;}
  .st3{fill:#F3E600;}
  .st4{fill:#50699C;}
  .st5{fill:#384D82;}
  .st6{fill:#FFFFFF;}
  .st7{fill:#244177;}
  .st8{fill:#5C5C5C;}
  .st9{fill:#4A4948;}
  .st10{fill:#2D2D2C;}
  .st11{fill:#AACE7B;}
  .st12{fill:#90C031;}
  .st13{fill:#6FB62C;}
</style>
<circle class="st0" cx="256" cy="256" r="217.3"/>
<path class="st1" d="M453.1,224.5l-52.5,194c-39,33.6-89.7,53.9-145.1,53.9c-4.7,0-9.4-0.1-14-0.4h0l-43.5-11.8
  c-13.2-3.6-21-17.1-17.4-30.3l70.4-260.1c3.6-13.2,17.1-21,30.3-17.4l154.4,41.8C448.9,197.7,456.7,211.3,453.1,224.5L453.1,224.5z"
  />
<path class="st2" d="M433.7,296.3l-33.1,122.2c-39,33.6-89.7,53.9-145.1,53.9c-4.7,0-9.4-0.1-14-0.4h0l-43.5-11.8
  c-13.2-3.6-21-17.1-17.4-30.3l51-188.3c3.6-13.2,17.1-21,30.3-17.4L416.3,266C429.4,269.5,437.2,283.1,433.7,296.3L433.7,296.3z"/>
<path class="st3" d="M417.9,354.6l-17.3,64c-39,33.6-89.7,53.9-145.1,53.9c-4.7,0-9.4-0.1-14-0.4l-43.5-11.8
  c-13.2-3.6-21-17.1-17.4-30.3l35.2-130.1L417.9,354.6z"/>
<path class="st4" d="M356.9,172.8l-80.8,298.6c-6.8,0.6-13.7,1-20.6,1c-4.7,0-9.4-0.1-14-0.4h0l-17.8-4.8L307,159.3L356.9,172.8z"/>
<path class="st5" d="M337.4,244.6l-61.4,226.8c-6.8,0.6-13.7,1-20.6,1c-4.7,0-9.4-0.1-14-0.4h0l-17.8-4.8l63.9-236.1L337.4,244.6z"
  />
<g>
  <path class="st6" d="M375.8,382.7l-29.1,1.2l24.6,15.7c1.2,0.8,1.8,2.2,1.4,3.6l-2.2,8.1c-0.6,2.2-3.2,3.1-5.1,1.8l-34.1-24.8
    c-1.1-0.8-1.6-2.2-1.2-3.5l2.9-10.8c0.4-1.3,1.5-2.3,2.8-2.4l41.9-4.1c2.3-0.2,4.1,1.9,3.5,4.1l-2.4,8.8
    C378.4,381.6,377.2,382.6,375.8,382.7L375.8,382.7z"/>
  <path class="st6" d="M361.3,432.4l-38-10.3c-1.7-0.5-2.8-2.3-2.3-4l2.3-8.4c0.5-1.7,2.3-2.8,4-2.3l38,10.3c1.7,0.5,2.8,2.3,2.3,4
    l-2.3,8.4C364.8,431.9,363,432.9,361.3,432.4L361.3,432.4z"/>
  <path class="st6" d="M359.6,438.7l-38-10.3c-1.7-0.5-3.5,0.6-4,2.3l-2.3,8.4c-0.5,1.7,0.6,3.5,2.3,4l8.3,2.3l-1.7,6.1
    c-1,3.8-1.2,7.2-0.7,10.3c4.1-1.3,8.2-2.8,12.2-4.3c-0.5-1-0.6-2.3-0.2-3.7l1.5-5.4l10.5,2.9l-0.4,1.4c4.7-2.1,9.3-4.4,13.8-6.8
    l0.8-3.1C362.3,441,361.3,439.2,359.6,438.7L359.6,438.7z"/>
</g>
<path class="st7" d="M315.2,326.8l-39.2,144.7c-6.8,0.6-13.7,1-20.6,1c-4.7,0-9.4-0.1-14-0.4h0l-17.8-4.8l41.7-153.9L315.2,326.8z"
  />
<path class="st8" d="M315.1,464.3L315.1,464.3c-19,5.3-39,8.1-59.6,8.1c-4.7,0-9.4-0.1-14-0.4h0c-51-3.2-97.4-23.5-133.4-55.4
  L66.7,216.8c-2.8-13.4,5.8-26.5,19.2-29.2l156.7-32.4c13.4-2.8,26.4,5.8,29.2,19.2l54.6,263.9C328.6,448.7,323.7,459.1,315.1,464.3z
  "/>
<path class="st9" d="M315.1,464.3L315.1,464.3c-19,5.3-39,8.1-59.6,8.1c-4.7,0-9.4-0.1-14-0.4h0c-51-3.2-97.4-23.5-133.4-55.4
  l-26.3-127c-2.8-13.4,5.8-26.5,19.2-29.2L257.7,228c13.4-2.8,26.4,5.8,29.2,19.2l39.5,191.1C328.6,448.7,323.7,459.1,315.1,464.3z"
  />
<path class="st10" d="M315.1,464.3c-19,5.3-39,8.1-59.6,8.1c-4.7,0-9.4-0.1-14-0.4h0c-51-3.2-97.4-23.5-133.4-55.4l-14-67.9
  l205.1-42.4l27.3,131.9C328.6,448.7,323.7,459.1,315.1,464.3L315.1,464.3z"/>
<path class="st11" d="M224.4,470.3c-19.6-2.7-38.4-8-56-15.5L112,182.1l50.6-10.5L224.4,470.3z"/>
<path class="st12" d="M224.4,470.3c-19.6-2.7-38.4-8-56-15.5L127.1,255l50.6-10.5L224.4,470.3z"/>
<path class="st6" d="M274.2,350.4l-25.5,14.2l29,2.9c1.4,0.1,2.6,1.2,2.9,2.6l1.7,8.2c0.5,2.2-1.5,4.2-3.7,3.9l-41.6-6.8
  c-1.3-0.2-2.4-1.2-2.7-2.5l-2.3-11c-0.3-1.3,0.3-2.7,1.4-3.4l35.5-22.6c1.9-1.2,4.5-0.1,4.9,2.1l1.8,8.9
  C276.1,348.3,275.4,349.7,274.2,350.4L274.2,350.4z"/>
<path class="st6" d="M283.7,401.3l-38.5,8c-1.8,0.4-3.5-0.8-3.8-2.5l-1.8-8.5c-0.4-1.8,0.8-3.5,2.5-3.8l38.5-8
  c1.8-0.4,3.5,0.8,3.8,2.5l1.8,8.5C286.6,399.2,285.5,400.9,283.7,401.3z"/>
<path class="st6" d="M280.3,449.8c-10.9,2.3-18.6-3.2-21-14.8l-1.3-6.2l-8.5,1.8c-1.8,0.4-3.5-0.8-3.8-2.5l-1.8-8.5
  c-0.4-1.8,0.8-3.5,2.5-3.8l38.5-8c1.8-0.4,3.5,0.8,3.8,2.5l3.7,17.9C295,439.8,290.6,447.7,280.3,449.8z M277,435.8
  c3.3-0.7,4.9-2.9,4.2-6.1l-1.1-5.4l-10.7,2.2l1.1,5.4C271.1,435.1,273.5,436.6,277,435.8z"/>
<path class="st13" d="M224.4,470.3c-19.6-2.7-38.4-8-56-15.5l-24.1-116.5l50.6-10.5L224.4,470.3z"/>
</svg>
