<?xml version="1.0" encoding="utf-8"?>
<!-- Generator: Adobe Illustrator 22.0.1, SVG Export Plug-In . SVG Version: 6.00 Build 0)  -->
<svg version="1.1" id="Calque_1" xmlns="http://www.w3.org/2000/svg" xmlns:xlink="http://www.w3.org/1999/xlink" x="0px" y="0px"
   viewBox="0 0 512 512" style="enable-background:new 0 0 512 512;" xml:space="preserve">
<style type="text/css">
  .st0{opacity:0.4;fill:#88BD24;}
  .st1{fill:#DCDAEE;}
  .st2{fill:#ADACD7;}
  .st3{fill:#48578E;}
  .st4{fill:#1F1F1F;}
  .st5{fill:#353535;}
  .st6{fill:#FACCC0;}
  .st7{fill:#F9BFA1;}
  .st8{fill:#74B844;}
  .st9{fill:#7EBD5D;}
</style>
<circle class="st0" cx="256" cy="256" r="217.3"/>
<path class="st1" d="M161.6,177.5h188.1v59.9H161.6V177.5z"/>
<path class="st2" d="M255.6,177.5h94v59.9h-94L255.6,177.5z"/>
<path class="st3" d="M335.1,145.8h45V269h-45L335.1,145.8z"/>
<path class="st4" d="M335.1,145.8h45V269h-45L335.1,145.8z"/>
<path class="st5" d="M131.1,145.8h45V269h-45V145.8z"/>
<path class="st6" d="M323.4,252.6v-68.3c0-10.7-8.7-19.4-19.4-19.4c-4.6,0-8.8,1.6-12.1,4.2c-3.3-2.7-7.5-4.2-12.1-4.2
  c-4.6,0-8.8,1.6-12.1,4.2c-3.3-2.7-7.5-4.2-12.1-4.2c-4.6,0-8.8,1.6-12.1,4.2c-3.3-2.7-7.5-4.2-12.1-4.2c-10.7,0-19.4,8.7-19.4,19.4
  v53h-24.2v9.2c0,17.1,12.1,31.4,28.2,34.8v20.5c0,6.7-0.9,13.3-2.8,19.8l-8.4,28.7c-2.3,7.8-3.4,15.8-3.4,23.9v20.6h114.4v-20.6
  c0-8.1-1.1-16.1-3.4-23.9l-8.4-28.7c-1.9-6.4-2.8-13.1-2.8-19.8v-20.7C314,277.9,323.4,266.3,323.4,252.6L323.4,252.6z"/>
<path class="st7" d="M323.4,252.6v-68.3c0-10.7-8.7-19.4-19.4-19.4c-4.6,0-8.8,1.6-12.1,4.2c-3.3-2.7-7.5-4.2-12.1-4.2
  c-4.6,0-8.8,1.6-12.1,4.2c-3.3-2.7-7.5-4.2-12.1-4.2v229.9h60.2v-20.6c0-8.1-1.1-16.1-3.4-23.9l-8.4-28.7
  c-1.9-6.4-2.8-13.1-2.8-19.8v-20.7C314,277.9,323.4,266.3,323.4,252.6L323.4,252.6z"/>
<path class="st8" d="M384.6,174.7h27.9v68.7h-27.9V174.7z"/>
<path class="st9" d="M99.6,174.7h27.9v68.7H99.6L99.6,174.7z"/>
</svg>
