<svg id="Calque_1" data-name="Calque 1" xmlns="http://www.w3.org/2000/svg" xmlns:xlink="http://www.w3.org/1999/xlink" viewBox="0 0 759.77 759.77"><defs><style>.cls-1{fill:none;}.cls-2{fill:#f6a208;}.cls-3{fill:#ef9b06;}.cls-4{clip-path:url(#clip-path);}.cls-5{fill:#daa88d;}.cls-6{fill:#c74244;}.cls-7{fill:#eac0a8;}.cls-8{fill:#f2d7bc;}.cls-9{fill:#fff;}.cls-10{fill:#553829;}.cls-11{fill:#12968c;}</style><clipPath id="clip-path" transform="translate(-53.51 -50.23)"><circle class="cls-1" cx="433.4" cy="430.11" r="379.89" transform="translate(-177.2 432.44) rotate(-45)"/></clipPath></defs><title>picto-user</title><g id="men_5" data-name="men 5"><path class="cls-2" d="M813.28,430.11c0-209.8-170.08-379.88-379.88-379.88S53.51,220.31,53.51,430.11,223.59,810,433.4,810,813.28,639.91,813.28,430.11Z" transform="translate(-53.51 -50.23)"/><path class="cls-3" d="M813.28,430.11c0-209.8-170.08-379.88-379.88-379.88V810C643.2,810,813.28,639.91,813.28,430.11Z" transform="translate(-53.51 -50.23)"/><g class="cls-4"><rect class="cls-5" x="325.67" y="475.69" width="111.25" height="121.99"/><path class="cls-6" d="M489.73,590.82h19c35.35,9.11,74,15.57,99.76,45.38,16,18.57,43.9,173.8,43.9,173.8H434.1V634.26C464.82,634.26,489.73,614.81,489.73,590.82Z" transform="translate(-53.51 -50.23)"/><path class="cls-6" d="M378.47,590.82H359.54c-35.34,9.11-74.06,15.57-99.8,45.38-16,18.57-43.9,173.8-43.9,173.8H434.1V634.26C403.38,634.26,378.47,614.81,378.47,590.82Z" transform="translate(-53.51 -50.23)"/><path class="cls-7" d="M434.81,176.86c54,0,139.43,30.71,139.43,174.59,0,83.09-27.08,137.51-38.89,152.57-10.85,13.85-71.9,43.37-100.54,43.37Z" transform="translate(-53.51 -50.23)"/><path class="cls-7" d="M601.11,385.76c2.38-23-8.57-43.39-24.46-45.57s-30.71,14.69-33.09,37.69,8.57,43.38,24.47,45.56S598.73,408.75,601.11,385.76Z" transform="translate(-53.51 -50.23)"/><path class="cls-8" d="M434.81,176.86c-54,0-139.44,30.71-139.44,174.59,0,83.09,27.08,137.51,38.89,152.57,10.86,13.85,71.9,43.37,100.55,43.37Z" transform="translate(-53.51 -50.23)"/><path class="cls-8" d="M268.5,385.76c-2.38-23,8.57-43.39,24.46-45.57s30.71,14.69,33.09,37.69-8.57,43.38-24.47,45.56S270.88,408.75,268.5,385.76Z" transform="translate(-53.51 -50.23)"/><path class="cls-9" d="M434.81,493.11c25.17,0,45.58-8.32,45.58-18.58H389.22C389.22,484.79,409.63,493.11,434.81,493.11Z" transform="translate(-53.51 -50.23)"/><path class="cls-10" d="M547.17,362.86c5.82-14.84,17.32-24.34,29.48-22.67l.09,0c5.52-17.07,7.49-37.36-.07-58.89-40.22-114.52,5.46-135,5.46-135s-44.48-2-79,26.57c23.8-36.89,34.51-46.41,34.51-46.41s-50-10.71-103.52,44c11.9-29.75,26.18-44.88,26.18-44.88s-111.85.85-152.31,81.76c-23.06,46.12-24.84,96.09-19.26,133.86a20.31,20.31,0,0,1,4.22-1.1,21.91,21.91,0,0,1,15,3.69v-35.3c21.42-9.53,44-21.42,42.84-69H507.9s-3.57,53.55,39.27,66.63Z" transform="translate(-53.51 -50.23)"/><path class="cls-11" d="M434.12,648.34c41.19,0,74.58-25.75,74.58-57.52H489.6c0,23.95-24.83,43.37-55.48,43.43s-55.47-19.48-55.47-43.43H359.54C359.54,622.59,392.93,648.34,434.12,648.34Z" transform="translate(-53.51 -50.23)"/></g></g></svg>
